<svg width="9" height="16" viewBox="0 0 9 16" fill="none" xmlns="http://www.w3.org/2000/svg">
<path d="M5.49999 11.9687C5.49999 13.2249 5.49686 14.478 5.50311 15.7343C5.50311 15.8718 5.46561 15.9093 5.32811 15.9062C4.25936 15.8999 3.19374 15.8999 2.12499 15.9062C1.97811 15.9062 1.93124 15.8718 1.93124 15.7187C1.93749 13.228 1.93436 10.7405 1.93436 8.24991C1.93436 7.99991 1.96249 8.03116 1.70624 8.02803C1.25311 8.02803 0.799988 8.02491 0.346863 8.03116C0.237488 8.03116 0.206238 7.99678 0.206238 7.88741C0.209363 7.09678 0.209363 6.30303 0.206238 5.51241C0.206238 5.40303 0.237488 5.36866 0.346863 5.37178C0.821863 5.37803 1.29374 5.36866 1.76874 5.37803C1.89686 5.38116 1.93749 5.34678 1.93749 5.21241C1.93124 4.54678 1.93749 3.87803 1.93436 3.21241C1.93124 2.65928 2.01561 2.12491 2.29374 1.63741C2.59374 1.10616 3.04374 0.740531 3.59999 0.503031C4.06874 0.303031 4.56249 0.209281 5.06874 0.181156C6.07186 0.124906 7.07811 0.171781 8.08124 0.153031C8.19374 0.149906 8.22186 0.190531 8.22186 0.296781C8.21874 1.11866 8.21874 1.94366 8.22186 2.76553C8.22186 2.89053 8.17499 2.90928 8.06561 2.90928C7.48749 2.90616 6.90936 2.90616 6.33124 2.90616C5.84999 2.90616 5.50311 3.25303 5.50311 3.72803C5.50311 4.21866 5.50936 4.70616 5.49999 5.19678C5.49686 5.33741 5.54374 5.37178 5.67811 5.37178C6.46874 5.36553 7.26249 5.37178 8.05311 5.36553C8.18436 5.36553 8.22811 5.40303 8.21249 5.53428C8.16561 5.93741 8.12499 6.34053 8.08124 6.74366C8.04061 7.13116 7.97186 7.51553 7.90936 7.89991C7.89061 8.00928 7.85624 8.03428 7.75624 8.03428C7.07811 8.03116 6.40311 8.03116 5.72499 8.03428C5.45936 8.03428 5.49686 7.99991 5.49686 8.26866C5.49999 9.49991 5.49999 10.7343 5.49999 11.9687Z" fill="#1E1E1E"/>
</svg>
