<svg width="1437" height="646" viewBox="0 0 1437 646" fill="none" xmlns="http://www.w3.org/2000/svg">
<line x1="1362.72" y1="2" x2="1362.72" y2="497" stroke="#DFDFDF"/>
<line x1="1401.61" y1="2" x2="1401.61" y2="497" stroke="#DFDFDF"/>
<rect width="1436.01" height="646" fill="#ECECEC"/>
<line x1="40.3887" y1="2" x2="40.3886" y2="646" stroke="#DFDFDF"/>
<line x1="40.3887" y1="2" x2="40.3886" y2="646" stroke="#DFDFDF"/>
<line x1="79.2812" y1="2" x2="79.2812" y2="646" stroke="#DFDFDF"/>
<line x1="118.174" y1="2" x2="118.174" y2="646" stroke="#DFDFDF"/>
<line x1="157.064" y1="2" x2="157.064" y2="646" stroke="#DFDFDF"/>
<line x1="195.957" y1="2" x2="195.957" y2="646" stroke="#DFDFDF"/>
<line x1="234.85" y1="2" x2="234.85" y2="646" stroke="#DFDFDF"/>
<line x1="273.74" y1="2" x2="273.74" y2="646" stroke="#DFDFDF"/>
<line x1="312.633" y1="2" x2="312.633" y2="646" stroke="#DFDFDF"/>
<line x1="351.525" y1="2" x2="351.525" y2="646" stroke="#DFDFDF"/>
<line x1="390.416" y1="2" x2="390.416" y2="646" stroke="#DFDFDF"/>
<line x1="429.309" y1="2" x2="429.309" y2="646" stroke="#DFDFDF"/>
<line x1="468.201" y1="2" x2="468.201" y2="646" stroke="#DFDFDF"/>
<line x1="507.094" y1="2" x2="507.094" y2="646" stroke="#DFDFDF"/>
<line x1="545.984" y1="2" x2="545.984" y2="646" stroke="#DFDFDF"/>
<line x1="584.877" y1="2" x2="584.877" y2="646" stroke="#DFDFDF"/>
<line x1="623.77" y1="2" x2="623.77" y2="646" stroke="#DFDFDF"/>
<line x1="662.66" y1="2" x2="662.66" y2="646" stroke="#DFDFDF"/>
<line x1="701.553" y1="2" x2="701.553" y2="646" stroke="#DFDFDF"/>
<line x1="740.445" y1="2" x2="740.445" y2="646" stroke="#DFDFDF"/>
<line x1="779.336" y1="2" x2="779.336" y2="646" stroke="#DFDFDF"/>
<line x1="818.229" y1="2" x2="818.229" y2="646" stroke="#DFDFDF"/>
<line x1="857.121" y1="2" x2="857.121" y2="646" stroke="#DFDFDF"/>
<line x1="896.012" y1="2" x2="896.012" y2="646" stroke="#DFDFDF"/>
<line x1="934.904" y1="2" x2="934.904" y2="646" stroke="#DFDFDF"/>
<line x1="973.797" y1="2" x2="973.797" y2="646" stroke="#DFDFDF"/>
<line x1="1012.69" y1="2" x2="1012.69" y2="646" stroke="#DFDFDF"/>
<line x1="1051.58" y1="2" x2="1051.58" y2="646" stroke="#DFDFDF"/>
<line x1="1090.47" y1="2" x2="1090.47" y2="646" stroke="#DFDFDF"/>
<line x1="1129.36" y1="2" x2="1129.36" y2="646" stroke="#DFDFDF"/>
<line x1="1168.26" y1="2" x2="1168.26" y2="646" stroke="#DFDFDF"/>
<line x1="1207.15" y1="2" x2="1207.15" y2="646" stroke="#DFDFDF"/>
<line x1="1246.04" y1="2" x2="1246.04" y2="646" stroke="#DFDFDF"/>
<line x1="1436.01" y1="40.5" x2="0.000610308" y2="40.4999" stroke="#DFDFDF"/>
<line x1="1436.01" y1="80.5" x2="0.000610308" y2="80.4999" stroke="#DFDFDF"/>
<line x1="1436.01" y1="120.5" x2="0.000610308" y2="120.5" stroke="#DFDFDF"/>
<line x1="1436.01" y1="160.5" x2="0.000610308" y2="160.5" stroke="#DFDFDF"/>
<line x1="1436.01" y1="200.5" x2="0.000610308" y2="200.5" stroke="#DFDFDF"/>
<line x1="1436.01" y1="240.5" x2="0.000610308" y2="240.5" stroke="#DFDFDF"/>
<line x1="1436.01" y1="280.501" x2="0.000610308" y2="280.501" stroke="#DFDFDF"/>
<line x1="1436.01" y1="320.501" x2="0.000610308" y2="320.501" stroke="#DFDFDF"/>
<line x1="1436.01" y1="360.501" x2="0.000610308" y2="360.501" stroke="#DFDFDF"/>
<line x1="1436.01" y1="400.501" x2="0.000610308" y2="400.501" stroke="#DFDFDF"/>
<line x1="1436.01" y1="440.501" x2="0.000610308" y2="440.501" stroke="#DFDFDF"/>
<line x1="1436.01" y1="480.501" x2="0.000610308" y2="480.501" stroke="#DFDFDF"/>
<line x1="1436.01" y1="505.5" x2="0.000610308" y2="505.5" stroke="#DFDFDF"/>
<line x1="1436.01" y1="530.499" x2="0.000610308" y2="530.499" stroke="#DFDFDF"/>
<line x1="1436.01" y1="555.498" x2="0.000610308" y2="555.498" stroke="#DFDFDF"/>
<line x1="1436.01" y1="580.496" x2="0.000610308" y2="580.496" stroke="#DFDFDF"/>
<line x1="1436.01" y1="605.495" x2="0.000610308" y2="605.495" stroke="#DFDFDF"/>
<line x1="1436.01" y1="630.494" x2="0.000610308" y2="630.494" stroke="#DFDFDF"/>
<line x1="1284.93" y1="2" x2="1284.93" y2="646" stroke="#DFDFDF"/>
<line x1="1323.82" y1="2" x2="1323.82" y2="646" stroke="#DFDFDF"/>
<line x1="1362.72" y1="2" x2="1362.72" y2="646" stroke="#DFDFDF"/>
<line x1="1401.61" y1="2" x2="1401.61" y2="646" stroke="#DFDFDF"/>
<line x1="1436.5" y1="2" x2="1436.5" y2="646" stroke="#DFDFDF"/>
</svg>
